{
  "accessors": [
    {
      "bufferView": 2,
      "componentType": 5126,
      "count": 4136,
      "max": [
        0.10802061855792999,
        0.10814307630062103,
        0.964974045753479
      ],
      "min": [
        -0.10802061855792999,
        -0.10814308375120163,
        0.789980411529541
      ],
      "type": "VEC3"
    },
    {
      "bufferView": 2,
      "byteOffset": 49632,
      "componentType": 5126,
      "count": 4136,
      "max": [
        0.9994969367980957,
        1.0,
        1.0
      ],
      "min": [
        -0.9994969367980957,
        -1.0,
        -1.0
      ],
      "type": "VEC3"
    },
    {
      "bufferView": 3,
      "componentType": 5126,
      "count": 4136,
      "max": [
        1.0,
        1.0,
        1.0,
        1.0
      ],
      "min": [
        1.0,
        1.0,
        1.0,
        1.0
      ],
      "type": "VEC4"
    },
    {
      "bufferView": 1,
      "componentType": 5126,
      "count": 4136,
      "max": [
        0.9992175698280334,
        0.9997730255126953
      ],
      "min": [
        0.00040695900679565966,
        0.043284058570861816
      ],
      "type": "VEC2"
    },
    {
      "bufferView": 0,
      "componentType": 5125,
      "count": 23760,
      "type": "SCALAR"
    },
    {
      "bufferView": 2,
      "byteOffset": 99264,
      "componentType": 5126,
      "count": 4136,
      "max": [
        0.2938312292098999,
        0.29416438937187195,
        0.42796266078948975
      ],
      "min": [
        -0.2938312292098999,
        -0.29416438937187195,
        0.2405182123184204
      ],
      "type": "VEC3"
    },
    {
      "bufferView": 2,
      "byteOffset": 148896,
      "componentType": 5126,
      "count": 4136,
      "max": [
        0.9994968771934509,
        1.0,
        1.0
      ],
      "min": [
        -0.9994968175888062,
        -1.0,
        -1.0
      ],
      "type": "VEC3"
    },
    {
      "bufferView": 3,
      "byteOffset": 66176,
      "componentType": 5126,
      "count": 4136,
      "max": [
        1.0,
        1.0,
        1.0,
        1.0
      ],
      "min": [
        1.0,
        1.0,
        1.0,
        1.0
      ],
      "type": "VEC4"
    },
    {
      "bufferView": 1,
      "byteOffset": 33088,
      "componentType": 5126,
      "count": 4136,
      "max": [
        0.9992175698280334,
        0.9997730255126953
      ],
      "min": [
        0.00040695900679565966,
        0.043284058570861816
      ],
      "type": "VEC2"
    },
    {
      "bufferView": 0,
      "byteOffset": 95040,
      "componentType": 5125,
      "count": 23760,
      "type": "SCALAR"
    },
    {
      "bufferView": 2,
      "byteOffset": 198528,
      "componentType": 5126,
      "count": 4136,
      "max": [
        0.14020133018493652,
        0.14036034047603607,
        0.9303645491600037
      ],
      "min": [
        -0.14020133018493652,
        -0.14036034047603607,
        0.5597792267799377
      ],
      "type": "VEC3"
    },
    {
      "bufferView": 2,
      "byteOffset": 248160,
      "componentType": 5126,
      "count": 4136,
      "max": [
        0.9994968771934509,
        1.0,
        1.0
      ],
      "min": [
        -0.9994968771934509,
        -1.0,
        -1.0
      ],
      "type": "VEC3"
    },
    {
      "bufferView": 3,
      "byteOffset": 132352,
      "componentType": 5126,
      "count": 4136,
      "max": [
        1.0,
        1.0,
        1.0,
        1.0
      ],
      "min": [
        1.0,
        1.0,
        1.0,
        1.0
      ],
      "type": "VEC4"
    },
    {
      "bufferView": 1,
      "byteOffset": 66176,
      "componentType": 5126,
      "count": 4136,
      "max": [
        0.9992175698280334,
        0.9997730255126953
      ],
      "min": [
        0.00040695900679565966,
        0.043284058570861816
      ],
      "type": "VEC2"
    },
    {
      "bufferView": 0,
      "byteOffset": 190080,
      "componentType": 5125,
      "count": 23760,
      "type": "SCALAR"
    },
    {
      "bufferView": 2,
      "byteOffset": 297792,
      "componentType": 5126,
      "count": 65532,
      "max": [
        0.34604090452194214,
        0.45804327726364136,
        0.989868700504303
      ],
      "min": [
        -0.49390551447868347,
        -0.41291531920433044,
        0.5954141616821289
      ],
      "type": "VEC3"
    },
    {
      "bufferView": 2,
      "byteOffset": 1084176,
      "componentType": 5126,
      "count": 65532,
      "max": [
        0.9164568185806274,
        1.0,
        0.9162383079528809
      ],
      "min": [
        -0.9164560437202454,
        -1.0,
        -0.9162326455116272
      ],
      "type": "VEC3"
    },
    {
      "bufferView": 3,
      "byteOffset": 198528,
      "componentType": 5126,
      "count": 65532,
      "max": [
        1.0,
        1.0,
        1.0,
        1.0
      ],
      "min": [
        1.0,
        1.0,
        1.0,
        1.0
      ],
      "type": "VEC4"
    },
    {
      "bufferView": 1,
      "byteOffset": 99264,
      "componentType": 5126,
      "count": 65532,
      "max": [
        0.999848484992981,
        0.9996721148490906
      ],
      "min": [
        8.330999844474718e-05,
        0.03456854820251465
      ],
      "type": "VEC2"
    },
    {
      "bufferView": 0,
      "byteOffset": 285120,
      "componentType": 5125,
      "count": 371274,
      "type": "SCALAR"
    },
    {
      "bufferView": 2,
      "byteOffset": 1870560,
      "componentType": 5126,
      "count": 1219,
      "max": [
        0.3047340512275696,
        0.45804327726364136,
        0.9614382386207581
      ],
      "min": [
        0.015401353128254414,
        0.11878831684589386,
        0.6853086352348328
      ],
      "type": "VEC3"
    },
    {
      "bufferView": 2,
      "byteOffset": 1885188,
      "componentType": 5126,
      "count": 1219,
      "max": [
        0.47362881898880005,
        0.777502715587616,
        0.41375431418418884
      ],
      "min": [
        -0.4736279547214508,
        -0.7775020003318787,
        -0.4137524664402008
      ],
      "type": "VEC3"
    },
    {
      "bufferView": 3,
      "byteOffset": 1247040,
      "componentType": 5126,
      "count": 1219,
      "max": [
        1.0,
        1.0,
        1.0,
        1.0
      ],
      "min": [
        1.0,
        1.0,
        1.0,
        1.0
      ],
      "type": "VEC4"
    },
    {
      "bufferView": 1,
      "byteOffset": 623520,
      "componentType": 5126,
      "count": 1219,
      "max": [
        0.9993082284927368,
        0.9494363069534302
      ],
      "min": [
        0.608241856098175,
        0.034831702709198
      ],
      "type": "VEC2"
    },
    {
      "bufferView": 0,
      "byteOffset": 1770216,
      "componentType": 5125,
      "count": 6510,
      "type": "SCALAR"
    },
    {
      "bufferView": 2,
      "byteOffset": 1899816,
      "componentType": 5126,
      "count": 4136,
      "max": [
        0.16189996898174286,
        0.16208355128765106,
        0.5088798999786377
      ],
      "min": [
        -0.16189996898174286,
        -0.16208355128765106,
        -0.35014498233795166
      ],
      "type": "VEC3"
    },
    {
      "bufferView": 2,
      "byteOffset": 1949448,
      "componentType": 5126,
      "count": 4136,
      "max": [
        0.9994968771934509,
        1.0,
        1.0
      ],
      "min": [
        -0.9994968771934509,
        -1.0,
        -1.0
      ],
      "type": "VEC3"
    },
    {
      "bufferView": 3,
      "byteOffset": 1266544,
      "componentType": 5126,
      "count": 4136,
      "max": [
        0.21568627655506134,
        0.2862745225429535,
        0.4156862795352936,
        1.0
      ],
      "min": [
        0.21568627655506134,
        0.2862745225429535,
        0.4156862795352936,
        1.0
      ],
      "type": "VEC4"
    },
    {
      "bufferView": 1,
      "byteOffset": 633272,
      "componentType": 5126,
      "count": 4136,
      "max": [
        0.12285798788070679,
        0.9995936751365662
      ],
      "min": [
        0.00040637300116941333,
        0.0007567399879917502
      ],
      "type": "VEC2"
    },
    {
      "bufferView": 0,
      "byteOffset": 1796256,
      "componentType": 5125,
      "count": 23760,
      "type": "SCALAR"
    },
    {
      "bufferView": 2,
      "byteOffset": 1999080,
      "componentType": 5126,
      "count": 4136,
      "max": [
        0.2938312590122223,
        0.2941644489765167,
        0.596197247505188
      ],
      "min": [
        -0.2938312590122223,
        -0.2941644489765167,
        0.4686931073665619
      ],
      "type": "VEC3"
    },
    {
      "bufferView": 2,
      "byteOffset": 2048712,
      "componentType": 5126,
      "count": 4136,
      "max": [
        0.9994968175888062,
        1.0,
        1.0
      ],
      "min": [
        -0.9994969367980957,
        -1.0,
        -1.0
      ],
      "type": "VEC3"
    },
    {
      "bufferView": 3,
      "byteOffset": 1332720,
      "componentType": 5126,
      "count": 4136,
      "max": [
        1.0,
        1.0,
        1.0,
        1.0
      ],
      "min": [
        1.0,
        1.0,
        1.0,
        1.0
      ],
      "type": "VEC4"
    },
    {
      "bufferView": 1,
      "byteOffset": 666360,
      "componentType": 5126,
      "count": 4136,
      "max": [
        0.9992175698280334,
        0.9997730255126953
      ],
      "min": [
        0.00040695900679565966,
        0.043284058570861816
      ],
      "type": "VEC2"
    },
    {
      "bufferView": 0,
      "byteOffset": 1891296,
      "componentType": 5125,
      "count": 23760,
      "type": "SCALAR"
    }
  ],
  "asset": {
    "extras": {
      "author": "R7rus10 (https://sketchfab.com/Rayver.Soriano1)",
      "license": "CC-BY-4.0 (http://creativecommons.org/licenses/by/4.0/)",
      "source": "https://sketchfab.com/3d-models/master-sprinkler-grow-a-garden-remake-a280b69f4323412f8f3ef9a6be25609b",
      "title": "Master Sprinkler (Grow A Garden Remake)"
    },
    "generator": "Sketchfab-16.68.0",
    "version": "2.0"
  },
  "bufferViews": [
    {
      "buffer": 0,
      "byteLength": 1986336,
      "name": "floatBufferViews",
      "target": 34963
    },
    {
      "buffer": 0,
      "byteLength": 699448,
      "byteOffset": 1986336,
      "byteStride": 8,
      "name": "floatBufferViews",
      "target": 34962
    },
    {
      "buffer": 0,
      "byteLength": 2098344,
      "byteOffset": 2685784,
      "byteStride": 12,
      "name": "floatBufferViews",
      "target": 34962
    },
    {
      "buffer": 0,
      "byteLength": 1398896,
      "byteOffset": 4784128,
      "byteStride": 16,
      "name": "floatBufferViews",
      "target": 34962
    }
  ],
  "buffers": [
    {
      "byteLength": 6183024,
      "uri": "scene.bin"
    }
  ],
  "images": [
    {
      "uri": "textures/Clip_baseColor.png"
    },
    {
      "uri": "textures/Extra_baseColor.png"
    },
    {
      "uri": "textures/Gear_baseColor.png"
    },
    {
      "uri": "textures/Sprinkler_baseColor.png"
    },
    {
      "uri": "textures/Sprinkler_metallicRoughness.png"
    },
    {
      "uri": "textures/Stand_1_baseColor.png"
    },
    {
      "uri": "textures/Stand_1_metallicRoughness.png"
    },
    {
      "uri": "textures/material_baseColor.png"
    }
  ],
  "materials": [
    {
      "doubleSided": true,
      "name": "Clip",
      "pbrMetallicRoughness": {
        "baseColorTexture": {
          "index": 0
        },
        "metallicFactor": 0.0
      }
    },
    {
      "doubleSided": true,
      "name": "Extra",
      "pbrMetallicRoughness": {
        "baseColorTexture": {
          "index": 1
        },
        "metallicFactor": 0.0
      }
    },
    {
      "doubleSided": true,
      "name": "Gear",
      "pbrMetallicRoughness": {
        "baseColorTexture": {
          "index": 2
        },
        "metallicFactor": 0.0
      }
    },
    {
      "doubleSided": true,
      "name": "Sprinkler",
      "pbrMetallicRoughness": {
        "baseColorTexture": {
          "index": 3
        },
        "metallicRoughnessTexture": {
          "index": 4
        }
      }
    },
    {
      "doubleSided": true,
      "name": "Stand_1",
      "pbrMetallicRoughness": {
        "baseColorTexture": {
          "index": 5
        },
        "metallicRoughnessTexture": {
          "index": 6
        }
      }
    },
    {
      "doubleSided": true,
      "name": "material",
      "pbrMetallicRoughness": {
        "baseColorTexture": {
          "index": 7
        },
        "metallicFactor": 0.0
      }
    }
  ],
  "meshes": [
    {
      "name": "Object_0",
      "primitives": [
        {
          "attributes": {
            "COLOR_0": 2,
            "NORMAL": 1,
            "POSITION": 0,
            "TEXCOORD_0": 3
          },
          "indices": 4,
          "material": 0,
          "mode": 4
        }
      ]
    },
    {
      "name": "Object_1",
      "primitives": [
        {
          "attributes": {
            "COLOR_0": 7,
            "NORMAL": 6,
            "POSITION": 5,
            "TEXCOORD_0": 8
          },
          "indices": 9,
          "material": 1,
          "mode": 4
        }
      ]
    },
    {
      "name": "Object_2",
      "primitives": [
        {
          "attributes": {
            "COLOR_0": 12,
            "NORMAL": 11,
            "POSITION": 10,
            "TEXCOORD_0": 13
          },
          "indices": 14,
          "material": 2,
          "mode": 4
        }
      ]
    },
    {
      "name": "Object_3",
      "primitives": [
        {
          "attributes": {
            "COLOR_0": 17,
            "NORMAL": 16,
            "POSITION": 15,
            "TEXCOORD_0": 18
          },
          "indices": 19,
          "material": 3,
          "mode": 4
        }
      ]
    },
    {
      "name": "Object_4",
      "primitives": [
        {
          "attributes": {
            "COLOR_0": 22,
            "NORMAL": 21,
            "POSITION": 20,
            "TEXCOORD_0": 23
          },
          "indices": 24,
          "material": 3,
          "mode": 4
        }
      ]
    },
    {
      "name": "Object_5",
      "primitives": [
        {
          "attributes": {
            "COLOR_0": 27,
            "NORMAL": 26,
            "POSITION": 25,
            "TEXCOORD_0": 28
          },
          "indices": 29,
          "material": 4,
          "mode": 4
        }
      ]
    },
    {
      "name": "Object_6",
      "primitives": [
        {
          "attributes": {
            "COLOR_0": 32,
            "NORMAL": 31,
            "POSITION": 30,
            "TEXCOORD_0": 33
          },
          "indices": 34,
          "material": 5,
          "mode": 4
        }
      ]
    }
  ],
  "nodes": [
    {
      "children": [
        1
      ],
      "matrix": [
        1.0,
        0.0,
        0.0,
        0.0,
        0.0,
        2.220446049250313e-16,
        -1.0,
        0.0,
        0.0,
        1.0,
        2.220446049250313e-16,
        0.0,
        0.0,
        0.0,
        0.0,
        1.0
      ],
      "name": "Sketchfab_model"
    },
    {
      "children": [
        2,
        3,
        4,
        5,
        6,
        7,
        8
      ],
      "name": "Master Sprinkler 1.obj.cleaner.materialmerger.gles"
    },
    {
      "mesh": 0,
      "name": "Object_2"
    },
    {
      "mesh": 1,
      "name": "Object_3"
    },
    {
      "mesh": 2,
      "name": "Object_4"
    },
    {
      "mesh": 3,
      "name": "Object_5"
    },
    {
      "mesh": 4,
      "name": "Object_6"
    },
    {
      "mesh": 5,
      "name": "Object_7"
    },
    {
      "mesh": 6,
      "name": "Object_8"
    }
  ],
  "samplers": [
    {
      "magFilter": 9729,
      "minFilter": 9987,
      "wrapS": 10497,
      "wrapT": 10497
    }
  ],
  "scene": 0,
  "scenes": [
    {
      "name": "Sketchfab_Scene",
      "nodes": [
        0
      ]
    }
  ],
  "textures": [
    {
      "sampler": 0,
      "source": 0
    },
    {
      "sampler": 0,
      "source": 1
    },
    {
      "sampler": 0,
      "source": 2
    },
    {
      "sampler": 0,
      "source": 3
    },
    {
      "sampler": 0,
      "source": 4
    },
    {
      "sampler": 0,
      "source": 5
    },
    {
      "sampler": 0,
      "source": 6
    },
    {
      "sampler": 0,
      "source": 7
    }
  ]
}
