{
  "accessors": [
    {
      "bufferView": 2,
      "componentType": 5126,
      "count": 65532,
      "max": [
        256.200439453125,
        1300.3211669921875,
        214.77691650390625
      ],
      "min": [
        -197.99534606933594,
        0.008333333767950535,
        -187.63690185546875
      ],
      "type": "VEC3"
    },
    {
      "bufferView": 2,
      "byteOffset": 786384,
      "componentType": 5126,
      "count": 65532,
      "type": "VEC3"
    },
    {
      "bufferView": 3,
      "componentType": 5126,
      "count": 65532,
      "type": "VEC4"
    },
    {
      "bufferView": 1,
      "componentType": 5126,
      "count": 65532,
      "type": "VEC2"
    },
    {
      "bufferView": 1,
      "byteOffset": 524256,
      "componentType": 5126,
      "count": 65532,
      "type": "VEC2"
    },
    {
      "bufferView": 1,
      "byteOffset": 1048512,
      "componentType": 5126,
      "count": 65532,
      "type": "VEC2"
    },
    {
      "bufferView": 1,
      "byteOffset": 1572768,
      "componentType": 5126,
      "count": 65532,
      "type": "VEC2"
    },
    {
      "bufferView": 0,
      "componentType": 5125,
      "count": 186810,
      "type": "SCALAR"
    },
    {
      "bufferView": 2,
      "byteOffset": 1572768,
      "componentType": 5126,
      "count": 65532,
      "max": [
        251.0397186279297,
        922.9393310546875,
        350.85247802734375
      ],
      "min": [
        -297.61297607421875,
        241.8602294921875,
        -263.0469055175781
      ],
      "type": "VEC3"
    },
    {
      "bufferView": 2,
      "byteOffset": 2359152,
      "componentType": 5126,
      "count": 65532,
      "type": "VEC3"
    },
    {
      "bufferView": 3,
      "byteOffset": 1048512,
      "componentType": 5126,
      "count": 65532,
      "type": "VEC4"
    },
    {
      "bufferView": 1,
      "byteOffset": 2097024,
      "componentType": 5126,
      "count": 65532,
      "type": "VEC2"
    },
    {
      "bufferView": 1,
      "byteOffset": 2621280,
      "componentType": 5126,
      "count": 65532,
      "type": "VEC2"
    },
    {
      "bufferView": 1,
      "byteOffset": 3145536,
      "componentType": 5126,
      "count": 65532,
      "type": "VEC2"
    },
    {
      "bufferView": 1,
      "byteOffset": 3669792,
      "componentType": 5126,
      "count": 65532,
      "type": "VEC2"
    },
    {
      "bufferView": 0,
      "byteOffset": 747240,
      "componentType": 5125,
      "count": 176907,
      "type": "SCALAR"
    },
    {
      "bufferView": 2,
      "byteOffset": 3145536,
      "componentType": 5126,
      "count": 33509,
      "max": [
        280.8699951171875,
        948.9443359375,
        288.1315612792969
      ],
      "min": [
        -327.3750915527344,
        497.2891540527344,
        -300.52142333984375
      ],
      "type": "VEC3"
    },
    {
      "bufferView": 2,
      "byteOffset": 3547644,
      "componentType": 5126,
      "count": 33509,
      "type": "VEC3"
    },
    {
      "bufferView": 3,
      "byteOffset": 2097024,
      "componentType": 5126,
      "count": 33509,
      "type": "VEC4"
    },
    {
      "bufferView": 1,
      "byteOffset": 4194048,
      "componentType": 5126,
      "count": 33509,
      "type": "VEC2"
    },
    {
      "bufferView": 1,
      "byteOffset": 4462120,
      "componentType": 5126,
      "count": 33509,
      "type": "VEC2"
    },
    {
      "bufferView": 1,
      "byteOffset": 4730192,
      "componentType": 5126,
      "count": 33509,
      "type": "VEC2"
    },
    {
      "bufferView": 1,
      "byteOffset": 4998264,
      "componentType": 5126,
      "count": 33509,
      "type": "VEC2"
    },
    {
      "bufferView": 0,
      "byteOffset": 1454868,
      "componentType": 5125,
      "count": 90621,
      "type": "SCALAR"
    },
    {
      "bufferView": 2,
      "byteOffset": 3949752,
      "componentType": 5126,
      "count": 65532,
      "max": [
        257.01104736328125,
        1301.08447265625,
        351.2552490234375
      ],
      "min": [
        -296.5655822753906,
        242.73223876953125,
        -275.0767822265625
      ],
      "type": "VEC3"
    },
    {
      "bufferView": 2,
      "byteOffset": 4736136,
      "componentType": 5126,
      "count": 65532,
      "type": "VEC3"
    },
    {
      "bufferView": 3,
      "byteOffset": 2633168,
      "componentType": 5126,
      "count": 65532,
      "type": "VEC4"
    },
    {
      "bufferView": 1,
      "byteOffset": 5266336,
      "componentType": 5126,
      "count": 65532,
      "type": "VEC2"
    },
    {
      "bufferView": 1,
      "byteOffset": 5790592,
      "componentType": 5126,
      "count": 65532,
      "type": "VEC2"
    },
    {
      "bufferView": 1,
      "byteOffset": 6314848,
      "componentType": 5126,
      "count": 65532,
      "type": "VEC2"
    },
    {
      "bufferView": 1,
      "byteOffset": 6839104,
      "componentType": 5126,
      "count": 65532,
      "type": "VEC2"
    },
    {
      "bufferView": 0,
      "byteOffset": 1817352,
      "componentType": 5125,
      "count": 98298,
      "type": "SCALAR"
    },
    {
      "bufferView": 2,
      "byteOffset": 5522520,
      "componentType": 5126,
      "count": 14272,
      "max": [
        281.79888916015625,
        942.6627807617188,
        313.9560241699219
      ],
      "min": [
        -327.8042907714844,
        498.0621643066406,
        -299.75067138671875
      ],
      "type": "VEC3"
    },
    {
      "bufferView": 2,
      "byteOffset": 5693784,
      "componentType": 5126,
      "count": 14272,
      "type": "VEC3"
    },
    {
      "bufferView": 3,
      "byteOffset": 3681680,
      "componentType": 5126,
      "count": 14272,
      "type": "VEC4"
    },
    {
      "bufferView": 1,
      "byteOffset": 7363360,
      "componentType": 5126,
      "count": 14272,
      "type": "VEC2"
    },
    {
      "bufferView": 1,
      "byteOffset": 7477536,
      "componentType": 5126,
      "count": 14272,
      "type": "VEC2"
    },
    {
      "bufferView": 1,
      "byteOffset": 7591712,
      "componentType": 5126,
      "count": 14272,
      "type": "VEC2"
    },
    {
      "bufferView": 1,
      "byteOffset": 7705888,
      "componentType": 5126,
      "count": 14272,
      "type": "VEC2"
    },
    {
      "bufferView": 0,
      "byteOffset": 2210544,
      "componentType": 5125,
      "count": 21408,
      "type": "SCALAR"
    },
    {
      "bufferView": 2,
      "byteOffset": 5865048,
      "componentType": 5126,
      "count": 65532,
      "max": [
        186.48968505859375,
        1302.40966796875,
        226.4849395751953
      ],
      "min": [
        -208.01141357421875,
        770.5718383789063,
        -196.91603088378906
      ],
      "type": "VEC3"
    },
    {
      "bufferView": 2,
      "byteOffset": 6651432,
      "componentType": 5126,
      "count": 65532,
      "type": "VEC3"
    },
    {
      "bufferView": 3,
      "byteOffset": 3910032,
      "componentType": 5126,
      "count": 65532,
      "type": "VEC4"
    },
    {
      "bufferView": 1,
      "byteOffset": 7820064,
      "componentType": 5126,
      "count": 65532,
      "type": "VEC2"
    },
    {
      "bufferView": 1,
      "byteOffset": 8344320,
      "componentType": 5126,
      "count": 65532,
      "type": "VEC2"
    },
    {
      "bufferView": 1,
      "byteOffset": 8868576,
      "componentType": 5126,
      "count": 65532,
      "type": "VEC2"
    },
    {
      "bufferView": 1,
      "byteOffset": 9392832,
      "componentType": 5126,
      "count": 65532,
      "type": "VEC2"
    },
    {
      "bufferView": 0,
      "byteOffset": 2296176,
      "componentType": 5125,
      "count": 174861,
      "type": "SCALAR"
    },
    {
      "bufferView": 2,
      "byteOffset": 7437816,
      "componentType": 5126,
      "count": 65532,
      "max": [
        268.3169250488281,
        977.2335205078125,
        362.14141845703125
      ],
      "min": [
        -307.92120361328125,
        233.73306274414063,
        -286.5228576660156
      ],
      "type": "VEC3"
    },
    {
      "bufferView": 2,
      "byteOffset": 8224200,
      "componentType": 5126,
      "count": 65532,
      "type": "VEC3"
    },
    {
      "bufferView": 3,
      "byteOffset": 4958544,
      "componentType": 5126,
      "count": 65532,
      "type": "VEC4"
    },
    {
      "bufferView": 1,
      "byteOffset": 9917088,
      "componentType": 5126,
      "count": 65532,
      "type": "VEC2"
    },
    {
      "bufferView": 1,
      "byteOffset": 10441344,
      "componentType": 5126,
      "count": 65532,
      "type": "VEC2"
    },
    {
      "bufferView": 1,
      "byteOffset": 10965600,
      "componentType": 5126,
      "count": 65532,
      "type": "VEC2"
    },
    {
      "bufferView": 1,
      "byteOffset": 11489856,
      "componentType": 5126,
      "count": 65532,
      "type": "VEC2"
    },
    {
      "bufferView": 0,
      "byteOffset": 2995620,
      "componentType": 5125,
      "count": 174858,
      "type": "SCALAR"
    },
    {
      "bufferView": 2,
      "byteOffset": 9010584,
      "componentType": 5126,
      "count": 49432,
      "max": [
        291.4783020019531,
        944.7659912109375,
        324.9662780761719
      ],
      "min": [
        -338.267578125,
        469.0190124511719,
        -310.2762451171875
      ],
      "type": "VEC3"
    },
    {
      "bufferView": 2,
      "byteOffset": 9603768,
      "componentType": 5126,
      "count": 49432,
      "type": "VEC3"
    },
    {
      "bufferView": 3,
      "byteOffset": 6007056,
      "componentType": 5126,
      "count": 49432,
      "type": "VEC4"
    },
    {
      "bufferView": 1,
      "byteOffset": 12014112,
      "componentType": 5126,
      "count": 49432,
      "type": "VEC2"
    },
    {
      "bufferView": 1,
      "byteOffset": 12409568,
      "componentType": 5126,
      "count": 49432,
      "type": "VEC2"
    },
    {
      "bufferView": 1,
      "byteOffset": 12805024,
      "componentType": 5126,
      "count": 49432,
      "type": "VEC2"
    },
    {
      "bufferView": 1,
      "byteOffset": 13200480,
      "componentType": 5126,
      "count": 49432,
      "type": "VEC2"
    },
    {
      "bufferView": 0,
      "byteOffset": 3695052,
      "componentType": 5125,
      "count": 131895,
      "type": "SCALAR"
    }
  ],
  "asset": {
    "generator": "fab-model-conversion",
    "version": "2.0"
  },
  "bufferViews": [
    {
      "buffer": 0,
      "byteLength": 4222632,
      "target": 34963
    },
    {
      "buffer": 0,
      "byteLength": 13595936,
      "byteOffset": 4222632,
      "byteStride": 8,
      "target": 34962
    },
    {
      "buffer": 0,
      "byteLength": 10196952,
      "byteOffset": 17818568,
      "byteStride": 12,
      "target": 34962
    },
    {
      "buffer": 0,
      "byteLength": 6797968,
      "byteOffset": 28015520,
      "byteStride": 16,
      "target": 34962
    }
  ],
  "buffers": [
    {
      "byteLength": 34813488,
      "uri": "scene.bin"
    }
  ],
  "extensionsUsed": [
    "KHR_materials_specular"
  ],
  "images": [
    {
      "uri": "textures/MT_PM_V60_Alnus_cremastogyne_01_Trunk_01.010_baseColor.jpeg"
    },
    {
      "uri": "textures/MT_PM_V60_Alnus_cremastogyne_01_Trunk_01.010_metallicRoughness.png"
    },
    {
      "uri": "textures/MT_PM_V60_Alnus_cremastogyne_01_Trunk_01.010_normal.jpeg"
    },
    {
      "uri": "textures/MT_PM_V60_Alnus_cremastogyne_01_Petiole_01.010_baseColor.jpeg"
    },
    {
      "uri": "textures/MT_PM_V60_Alnus_cremastogyne_01_Petiole_01.010_metallicRoughness.png"
    },
    {
      "uri": "textures/MT_PM_V60_Alnus_cremastogyne_01_Petiole_01.010_normal.jpeg"
    },
    {
      "uri": "textures/MT_PM_V60_Alnus_cremastogyne_01_Leaf_01.010_baseColor.png"
    },
    {
      "uri": "textures/MT_PM_V60_Alnus_cremastogyne_01_Leaf_01.010_metallicRoughness.png"
    },
    {
      "uri": "textures/MT_PM_V60_Alnus_cremastogyne_01_Leaf_01.010_normal.jpeg"
    }
  ],
  "materials": [
    {
      "doubleSided": true,
      "extensions": {
        "KHR_materials_specular": {
          "specularColorFactor": [
            1.0,
            1.0,
            1.0
          ],
          "specularFactor": 0.0
        }
      },
      "name": "MT_PM_V60_Alnus_cremastogyne_01_Trunk_01.010",
      "normalTexture": {
        "index": 2,
        "texCoord": 2
      },
      "pbrMetallicRoughness": {
        "baseColorTexture": {
          "index": 0
        },
        "metallicFactor": 0.0,
        "metallicRoughnessTexture": {
          "index": 1,
          "texCoord": 1
        }
      }
    },
    {
      "doubleSided": true,
      "name": "MT_PM_V60_Alnus_cremastogyne_01_Petiole_01.010",
      "normalTexture": {
        "index": 5,
        "texCoord": 2
      },
      "pbrMetallicRoughness": {
        "baseColorTexture": {
          "index": 3
        },
        "metallicFactor": 0.0,
        "metallicRoughnessTexture": {
          "index": 4,
          "texCoord": 1
        }
      }
    },
    {
      "alphaCutoff": 0.42514415282027523,
      "alphaMode": "MASK",
      "doubleSided": true,
      "extensions": {
        "KHR_materials_specular": {
          "specularColorFactor": [
            1.0,
            1.0,
            1.0
          ],
          "specularFactor": 0.10209554924357864
        }
      },
      "name": "MT_PM_V60_Alnus_cremastogyne_01_Leaf_01.010",
      "normalTexture": {
        "index": 8,
        "texCoord": 2
      },
      "pbrMetallicRoughness": {
        "baseColorTexture": {
          "index": 6
        },
        "metallicFactor": 0.0,
        "metallicRoughnessTexture": {
          "index": 7,
          "texCoord": 1
        }
      }
    }
  ],
  "meshes": [
    {
      "name": "Object_0",
      "primitives": [
        {
          "attributes": {
            "NORMAL": 1,
            "POSITION": 0,
            "TANGENT": 2,
            "TEXCOORD_0": 3,
            "TEXCOORD_1": 4,
            "TEXCOORD_2": 5,
            "TEXCOORD_3": 6
          },
          "indices": 7,
          "material": 0,
          "mode": 4
        }
      ]
    },
    {
      "name": "Object_1",
      "primitives": [
        {
          "attributes": {
            "NORMAL": 9,
            "POSITION": 8,
            "TANGENT": 10,
            "TEXCOORD_0": 11,
            "TEXCOORD_1": 12,
            "TEXCOORD_2": 13,
            "TEXCOORD_3": 14
          },
          "indices": 15,
          "material": 0,
          "mode": 4
        }
      ]
    },
    {
      "name": "Object_2",
      "primitives": [
        {
          "attributes": {
            "NORMAL": 17,
            "POSITION": 16,
            "TANGENT": 18,
            "TEXCOORD_0": 19,
            "TEXCOORD_1": 20,
            "TEXCOORD_2": 21,
            "TEXCOORD_3": 22
          },
          "indices": 23,
          "material": 0,
          "mode": 4
        }
      ]
    },
    {
      "name": "Object_3",
      "primitives": [
        {
          "attributes": {
            "NORMAL": 25,
            "POSITION": 24,
            "TANGENT": 26,
            "TEXCOORD_0": 27,
            "TEXCOORD_1": 28,
            "TEXCOORD_2": 29,
            "TEXCOORD_3": 30
          },
          "indices": 31,
          "material": 1,
          "mode": 4
        }
      ]
    },
    {
      "name": "Object_4",
      "primitives": [
        {
          "attributes": {
            "NORMAL": 33,
            "POSITION": 32,
            "TANGENT": 34,
            "TEXCOORD_0": 35,
            "TEXCOORD_1": 36,
            "TEXCOORD_2": 37,
            "TEXCOORD_3": 38
          },
          "indices": 39,
          "material": 1,
          "mode": 4
        }
      ]
    },
    {
      "name": "Object_5",
      "primitives": [
        {
          "attributes": {
            "NORMAL": 41,
            "POSITION": 40,
            "TANGENT": 42,
            "TEXCOORD_0": 43,
            "TEXCOORD_1": 44,
            "TEXCOORD_2": 45,
            "TEXCOORD_3": 46
          },
          "indices": 47,
          "material": 2,
          "mode": 4
        }
      ]
    },
    {
      "name": "Object_6",
      "primitives": [
        {
          "attributes": {
            "NORMAL": 49,
            "POSITION": 48,
            "TANGENT": 50,
            "TEXCOORD_0": 51,
            "TEXCOORD_1": 52,
            "TEXCOORD_2": 53,
            "TEXCOORD_3": 54
          },
          "indices": 55,
          "material": 2,
          "mode": 4
        }
      ]
    },
    {
      "name": "Object_7",
      "primitives": [
        {
          "attributes": {
            "NORMAL": 57,
            "POSITION": 56,
            "TANGENT": 58,
            "TEXCOORD_0": 59,
            "TEXCOORD_1": 60,
            "TEXCOORD_2": 61,
            "TEXCOORD_3": 62
          },
          "indices": 63,
          "material": 2,
          "mode": 4
        }
      ]
    }
  ],
  "nodes": [
    {
      "children": [
        1
      ],
      "matrix": [
        1.0,
        0.0,
        0.0,
        0.0,
        0.0,
        2.220446049250313e-16,
        -1.0,
        0.0,
        0.0,
        1.0,
        2.220446049250313e-16,
        0.0,
        0.0,
        0.0,
        0.0,
        1.0
      ],
      "name": "Sketchfab_model"
    },
    {
      "children": [
        2
      ],
      "name": "root"
    },
    {
      "children": [
        3
      ],
      "matrix": [
        1.0,
        0.0,
        0.0,
        0.0,
        0.0,
        2.220446049250313e-16,
        1.0,
        0.0,
        0.0,
        -1.0,
        2.220446049250313e-16,
        0.0,
        0.0,
        0.0,
        0.0,
        1.0
      ],
      "name": "GLTF_SceneRootNode"
    },
    {
      "children": [
        4,
        5,
        6,
        7,
        8,
        9,
        10,
        11
      ],
      "matrix": [
        0.009999999776482582,
        0.0,
        0.0,
        0.0,
        0.0,
        0.009999999776482582,
        0.0,
        0.0,
        0.0,
        0.0,
        0.009999999776482582,
        0.0,
        -13.651260375976563,
        -8.333333244081587e-05,
        -18.486162185668945,
        1.0
      ],
      "name": "MT_PM_V60_Alnus_cremastogyne_01_06_0"
    },
    {
      "mesh": 0,
      "name": "Object_4"
    },
    {
      "mesh": 1,
      "name": "Object_5"
    },
    {
      "mesh": 2,
      "name": "Object_6"
    },
    {
      "mesh": 3,
      "name": "Object_7"
    },
    {
      "mesh": 4,
      "name": "Object_8"
    },
    {
      "mesh": 5,
      "name": "Object_9"
    },
    {
      "mesh": 6,
      "name": "Object_10"
    },
    {
      "mesh": 7,
      "name": "Object_11"
    }
  ],
  "samplers": [
    {
      "magFilter": 9729,
      "minFilter": 9987,
      "wrapS": 10497,
      "wrapT": 10497
    }
  ],
  "scene": 0,
  "scenes": [
    {
      "name": "Sketchfab_Scene",
      "nodes": [
        0
      ]
    }
  ],
  "textures": [
    {
      "sampler": 0,
      "source": 0
    },
    {
      "sampler": 0,
      "source": 1
    },
    {
      "sampler": 0,
      "source": 2
    },
    {
      "sampler": 0,
      "source": 3
    },
    {
      "sampler": 0,
      "source": 4
    },
    {
      "sampler": 0,
      "source": 5
    },
    {
      "sampler": 0,
      "source": 6
    },
    {
      "sampler": 0,
      "source": 7
    },
    {
      "sampler": 0,
      "source": 8
    }
  ]
}
